<svg xmlns="http://www.w3.org/2000/svg" width="32" height="32" fill="none" viewBox="0 0 32 32"><rect width="32" height="32" fill="#ebf8f4" rx="8"/><g stroke="#056f4d" stroke-linecap="round" stroke-linejoin="round" stroke-width="1.5" clip-path="url(#a)"><path d="M18.334 18.667q1.667 1 1.667-.667v-1.333s2.666.707 2.666 3.333c0 1.11-.432 2.226-1.333 2.667V22.5c0-.638-.702-1.166-1.333-1.166-.632 0-1.334.528-1.334 1.166v.167c-.9-.441-1.333-1.333-1.333-2.333s1-1.667 1-1.667M14 10v8.667M10 14h12m-10 8h-.667A1.334 1.334 0 0 1 10 20.667v-9.334A1.334 1.334 0 0 1 11.333 10h9.334A1.334 1.334 0 0 1 22 11.333V14m-12 4h4.667M18 10v4.667"/></g><defs><clipPath id="a"><path fill="#fff" d="M8 8h16v16H8z"/></clipPath></defs></svg>