<svg xmlns="http://www.w3.org/2000/svg" width="32" height="32" fill="none" viewBox="0 0 32 32"><rect width="32" height="32" fill="#ebf8f4" rx="8"/><path stroke="#056f4d" stroke-linecap="round" stroke-linejoin="round" stroke-width="1.5" d="M20.667 18.667v-1.334a1.333 1.333 0 0 0-2.667 0v1.334M14.333 18h-1.666A2.667 2.667 0 0 0 10 20.667V22m4.667-6.667a2.667 2.667 0 1 0 0-5.333 2.667 2.667 0 0 0 0 5.333"/><path stroke="#056f4d" stroke-linecap="round" stroke-linejoin="round" stroke-width="1.5" d="M21.4 18.667h-4.135a.6.6 0 0 0-.599.6V21.4a.6.6 0 0 0 .6.6H21.4a.6.6 0 0 0 .6-.6v-2.135a.6.6 0 0 0-.6-.599"/></svg>