<svg xmlns="http://www.w3.org/2000/svg" width="14" height="14" fill="none" viewBox="0 0 14 14"><path stroke="#08c186" stroke-linecap="round" stroke-linejoin="round" d="M11.083 9.333V8.167a1.167 1.167 0 1 0-2.333 0v1.166M5.542 8.75H4.083a2.333 2.333 0 0 0-2.333 2.333v1.167m4.083-5.833a2.333 2.333 0 1 0 0-4.667 2.333 2.333 0 0 0 0 4.667"/><path stroke="#08c186" stroke-linecap="round" stroke-linejoin="round" d="M11.726 9.333H8.108a.524.524 0 0 0-.524.524v1.868c0 .29.235.525.524.525h3.618c.29 0 .525-.235.525-.525V9.857a.524.524 0 0 0-.525-.524"/></svg>