<svg xmlns="http://www.w3.org/2000/svg" width="64" height="64" fill="none" viewBox="0 0 64 64"><path fill="#231f20" d="M49.164 21.215c2.802-.112 6.4.954 8.489 2.846 3.887 3.52 3.733 11.93.334 15.718-1.907 2.124-5.589 2.972-8.378 3.097-2.872.06-6.386-.913-8.51-2.855-2.646-2.42-3.176-6.207-2.814-9.596.252-2.358.754-4.303 2.423-6.093 2.104-2.256 5.502-3.003 8.456-3.117m.587 16.373c.783-.068 1.957-.355 2.38-1.045 1.017-1.658.743-4.701.663-6.552-.103-2.4-1.133-3.6-3.545-3.555-.056 0-.096.013-.15.026-3.256.465-2.943 1.935-3.186 4.803-.076.9-.009 1.832.037 2.733.254 2.649 1.066 3.66 3.801 3.59"/><path fill="#231f20" d="M24.786 21.281a11.92 11.92 0 0 1 7.7 1.819c-.034-.56-.04-.768.016-1.33 1.122-.082 3.168.002 4.429-.03-.017 2.356-.034 4.862.011 7.214-.89-.122-3.278-.043-4.298-.042-2.016-2.22-3.715-2.928-6.778-2.968-.615-.008-1.68.148-1.614.98.018.25.162.473.382.592.378.208 1.848.589 2.347.748 2.68.87 6.107 1.327 8.333 3.11 2.713 2.173 3.129 6.357.839 8.993-1.612 1.857-4 2.293-6.33 2.496-1.552.013-3.756-.38-5.224-.94-.502-.193-1.422-.684-1.926-.94-.006.51.007.946.033 1.456-.755-.109-3.894-.054-4.75-.021-.015-.328.01-1.9.028-2.278.05-1.09-.125-4.516.108-5.344.306-.16 3.535-.1 4.015-.017.396.383.664.834 1.024 1.19 1.822 1.807 4.51 2.231 6.962 1.827.76-.126 1.351-.415.834-1.23-.715-.398-1.95-.734-2.756-.963-1.53-.381-3.028-.965-4.546-1.372-2.747-.736-5.562-2.63-5.785-5.751-.332-4.648 2.627-6.771 6.946-7.199M44.798 44.57c.293-.02.445-.039.732.014l.049.083c-.115.6-1.634 2.603-2.1 3.102-.078.116-.393.383-.514.49.843.409 1.684.995 2.562 1.434 1.951-1.337 3.25-3.285 4.78-5.027.113-.127.563-.122.731-.1l.06.092a1 1 0 0 1-.133.347c-2.995 4.686-7.878 8.184-13.168 9.646a24.07 24.07 0 0 1-18.356-2.212 24.3 24.3 0 0 1-7.15-6.247c-.305-.4-.863-1.15-.996-1.632 1.422.008 1.594 1.185 2.505 2.11.898.91 2.005 2.356 3.146 2.915.369.18 2.067-1.005 2.5-1.28-.518-.53-2.592-3.115-2.534-3.682.265-.237.827.118.998.34.801 1.047 1.55 2.046 2.417 3.048 1.296-.769 2.744-1.025 4.075-1.57-.2-.559-.72-1.275-.644-1.806.73-.645 1.363 1.186 1.531 1.658 1.515-.463 3.854-.635 5.481-.738-.01-.399-.038-1.014.512-1.059.522.12.476.654.472 1.061 1.403-.01 4.174.301 5.488.756.195-.532.718-1.91 1.413-1.818l.101.14c.096.484-.32 1.367-.557 1.797 1.331.533 2.586.826 3.978 1.487a59 59 0 0 0 2.62-3.35m-13.051 7.032c.689.115 1.347.23 2.044.295.307-.493.913-1.413 1.287-1.867.464-.74 1.535-2.297 1.755-3.04-1.04-.153-2.08-.318-3.12-.46-.646-.09-1.322-.1-1.961-.178.004 1.65.058 3.63-.005 5.25m9.713-3.001c-1.205-.657-2.392-.94-3.706-1.288-.884 1.512-2.057 3.49-3.136 4.894.427.153.978.338 1.383.532.522-.275.9-.503 1.398-.822 1.358-.75 3.005-2.195 4.061-3.316m-11.208 3.925c-1.174.107-3.053.6-3.938 1.423l-.032.095c.163.153.605.203.843.26 1.826.436 3.464.435 5.328.404 1.26-.054 2.801-.268 4.014-.663-1.756-1.058-2.998-1.6-5.129-1.563-.216.004-.931.012-1.086.044m8.811.846c2.311-.978 3.58-1.517 5.658-3.015-.536-.452-1.71-1.182-2.402-1.29-1.364 1.096-2.536 2.418-4.064 3.36-.406.251-1.08.512-1.242.939.061.45.893.312 1.236.253q.422-.076.814-.247m-21.213-2.99a24 24 0 0 0 5.883 3.088c.42.117.716.19 1.143.267.223-.066.492-.11.61-.299l.01-.17c-.953-.797-2.285-1.427-3.261-2.298-.244-.218-2.065-1.904-2.087-1.91-.765.248-1.687.79-2.298 1.322m12.445-3.98c-1.055.064-3.63.376-4.617.645.512.74.898 1.559 1.413 2.298.24.344.458.704.68 1.06l1.146 1.499c.66-.138 1.268-.206 1.92-.325-.05-1.2-.013-2.406-.025-3.605-.003-.246.012-1.385-.037-1.564-.186-.066-.288-.036-.48-.009m-5.539.869c-.551.212-1.28.376-1.899.593-.554.194-1.464.624-1.938.758a27.3 27.3 0 0 0 4.016 3.263c.484.299.977.61 1.48.875.417-.15 1.09-.37 1.476-.546-.62-1.294-1.862-2.61-2.497-3.94-.073-.154-.526-.946-.638-1.003m5.549-38.931c4.435-.124 8.82.96 12.687 3.138a24.9 24.9 0 0 1 6.83 5.852c.256.312 1.256 1.534 1.052 1.87-.105.035-.535.026-.577-.014-.743-.7-1.322-1.574-1.998-2.34-.89-1.01-1.876-1.85-2.918-2.694-.448.143-2.023 1-2.312 1.33-.002.5 2.686 3.167 2.362 3.752-.206.08-.505.026-.735.004-.927-1.258-1.583-2.157-2.631-3.327-1.354.37-2.438 1.034-4.076 1.392.165.498.863 1.56.48 1.941-.82.18-1.134-1.079-1.341-1.669-.736.082-1.66.32-2.418.44-1.095.174-1.944.232-3.04.253-.023.343-.03.605-.121.94-.333.084-.458.146-.743-.063-.152-.234-.167-.614-.203-.902-1.598.076-3.91-.355-5.491-.694-.142.518-.545 1.194-.808 1.686q-.11.019-.219.035c-.258.039-.325.06-.51-.078-.125-.38.442-1.32.653-1.76-.255-.143-1.042-.371-1.373-.488a48 48 0 0 1-2.735-1.029c-.345.632-.977 1.263-1.4 1.873-.356.512-1.13 1.711-1.83 1.456l-.027-.128c.174-.696 1.958-3.08 2.57-3.499-.513-.285-1.942-1.18-2.407-1.339-.851.007-3.543 3.167-4.096 3.903-.262.35-.512.69-.854 1.009-.298.013-.615.05-.913.08.47-.916 1.603-2.307 2.306-3.097 4.358-4.896 10.347-7.457 16.836-7.833m-2.594 8.808c.742.13 2.198.272 2.981.2-.06-1.735.042-3.43-.092-5.165-.497-.02-1.5-.033-1.944-.145-.65.88-1.271 1.737-1.874 2.65-.437.665-.843 1.425-1.287 2.067 1.253.432 1.249.2 2.216.393m6.852-.022c.955-.082 1.179-.086 2.058-.385-.32-.594-2.657-4.485-3.181-4.664l-.122.02c-.543.036-1.152.06-1.679.17-.053 1.596-.058 3.595.043 5.173.979-.17 1.888-.136 2.88-.314m5.024-1.182c.418-.144 1.24-.465 1.591-.702l.038-.095c-.352-.797-4.714-3.995-5.517-4.019-.371.192-.89.373-1.168.562.015.139 2.667 4.189 2.982 4.758.373.17 1.602-.391 2.074-.504m-16.652.097c.396.149 1.387.567 1.769.423.285-.292.974-1.742 1.292-2.227.582-.886 1.212-1.66 1.813-2.512-.432-.166-1.02-.374-1.417-.582-1.56.822-4.37 2.81-5.534 4.17.71.209 1.431.59 2.077.728m14.468-5.92c-.197.105-.45.212-.57.393.037.309 1.132.765 1.426.983 1.225.905 3.052 2.168 3.935 3.392a19 19 0 0 1 1.192-.7c.365-.225.775-.49 1.153-.68-1.364-.927-5.564-3.447-7.136-3.387m-12.839.01c-3.033.937-4.375 1.749-6.941 3.404.312.176 1.238.75 1.486.85.31.177.572.334.872.53.987-.931 1.67-1.589 2.752-2.41.982-.745 1.825-1.241 2.827-1.908-.267-.183-.669-.48-.996-.465m7.831 1.208c1.222-.127 2.897-.783 3.839-1.576a20 20 0 0 0-6.26-.548c-.71.04-3.35.13-3.82.586 0 .087-.02.103.024.138 1.26 1.028 3.405 1.536 4.948 1.505q.638-.016 1.27-.105M3.456 21.447q4.563.051 9.125.03c1.007 0 3.294-.08 4.184.028.053.517.12 4.639-.046 5.002-.469.225-2.37.13-2.978.107.12 3.435-.021 7.263.023 10.748.792-.078 2.165-.04 3.002-.04.031.276.093 4.859.05 5.021l-.144.065c-3.432-.078-6.89.01-10.324-.021a45 45 0 0 0-2.918.045c-.016-.778-.069-4.506.1-5.036.255-.162 2.327-.093 2.866-.12.136-3.523-.005-7.101.064-10.628-.954.039-2.063.022-3.036.042-.047-.918.006-2.025-.005-2.966-.007-.577-.029-1.753.037-2.277"/></svg>