<svg xmlns="http://www.w3.org/2000/svg" fill="none" overflow="visible" preserveAspectRatio="none" style="display:block" viewBox="0 0 18 18"><g stroke="var(--stroke-0, black)" stroke-linecap="round" stroke-linejoin="round" stroke-width="1.5"><path d="M7.996 7.996A1.42 1.42 0 0 0 7.575 9 1.426 1.426 0 0 0 9 10.425a1.42 1.42 0 0 0 1.004-.42"/><path d="M9 4.725a4.274 4.274 0 0 0-.834 8.468 4.27 4.27 0 0 0 4.388-1.818c.47-.703.72-1.53.72-2.375"/><path d="M9 1.875a7.124 7.124 0 0 0-1.39 14.113A7.123 7.123 0 0 0 16.125 9m-4.481-2.643L9.713 8.288"/><path d="m15.705 4.383-2.43.342.342-2.43a.14.14 0 0 0-.077-.14.15.15 0 0 0-.082-.014.15.15 0 0 0-.076.033l-1.61 1.604a1.43 1.43 0 0 0-.385 1.29l.257 1.29 1.289.256a1.42 1.42 0 0 0 1.29-.385l1.603-1.61a.14.14 0 0 0 .033-.077.142.142 0 0 0-.154-.159"/></g></svg>