<svg width="45" height="45" viewBox="0 0 45 45" fill="none" xmlns="http://www.w3.org/2000/svg">
<g clip-path="url(#clip0_3454_10203)">
<circle cx="22.5" cy="22.5" r="22" fill="#0A111E" stroke="#6F7985"/>
<path d="M17.8538 24.5305C19.515 24.4268 20.591 25.468 20.7708 27.0774C20.8262 27.5743 20.7775 28.0848 20.7903 28.5803C20.8162 29.5777 20.4681 30.6445 19.5999 31.2132C19.2089 31.4708 18.8943 31.5326 18.4485 31.6399C16.6401 31.7108 15.6004 30.5575 15.4886 28.8303C15.3573 26.8021 15.5718 25.0171 17.8538 24.5305ZM17.7874 25.0618C15.8838 25.4075 15.9452 27.8184 16.1419 29.2913C16.2197 29.8738 16.6138 30.5315 17.1018 30.8518C17.6029 31.1728 18.0327 31.1278 18.5999 31.1106C20.3117 30.5923 20.4059 28.5741 20.2093 27.1009C20.0236 25.7105 19.1775 24.955 17.7874 25.0618Z" fill="#6F7985"/>
<path d="M24.7284 13.5382C25.6166 13.5321 26.993 13.4533 27.8388 13.588C29.286 13.8186 29.9475 15.9261 28.8456 16.964C28.1649 17.6051 27.4883 17.5865 26.622 17.5811H25.2675L25.2704 20.3966L24.7353 20.3946C24.7082 18.1266 24.7302 15.8095 24.7284 13.5382ZM28.7548 15.3722C28.5965 13.694 26.4963 13.9713 25.2685 13.9776L25.2714 17.0518C26.2542 17.0554 27.6349 17.2374 28.371 16.6554C28.69 16.2447 28.804 15.8939 28.7548 15.3722Z" fill="#6F7985"/>
<path d="M12.5657 13.5137C12.9163 14.166 13.1667 14.995 13.4368 15.7012L15.2161 20.3896L14.5715 20.4102C14.3351 19.7626 14.1099 19.111 13.8948 18.4561L12.6204 18.4609L10.7473 18.457C10.5471 19.1223 10.3089 19.7759 10.0344 20.4141L9.45435 20.3887C9.74317 19.3468 10.4745 17.6751 10.8674 16.5986C11.1875 15.722 11.6734 14.3368 12.0403 13.5312C12.21 13.5309 12.3948 13.5203 12.5657 13.5137ZM12.2932 14.2988C12.1672 14.7437 11.9352 15.2928 11.7698 15.7373C11.5045 16.4663 11.2423 17.197 10.9846 17.9287H12.3831L13.6409 17.9297C13.5339 17.5805 12.4305 14.382 12.2932 14.2988Z" fill="#6F7985"/>
<path d="M32.3735 13.5322C32.4204 13.7513 32.8841 14.9132 32.9878 15.1895C33.3547 16.1753 33.7269 17.1591 34.105 18.1406C34.3876 18.8749 34.708 19.6499 34.9302 20.4014C34.7391 20.3911 34.4929 20.3984 34.2974 20.3984C34.125 19.7494 33.823 19.1117 33.6567 18.4482C33.2726 18.461 32.8498 18.4544 32.4624 18.457L30.5024 18.4551C30.2934 19.066 30.0557 19.8167 29.8042 20.3984L29.1646 20.3887C29.291 20.1232 29.4538 19.6513 29.5649 19.3633L30.5103 16.8594C30.7209 16.3033 31.6328 14.0214 31.7173 13.5293L32.3735 13.5322ZM32.021 14.3008C31.8735 14.8406 31.6015 15.4976 31.4048 16.04C31.1935 16.623 30.9472 17.3861 30.6704 17.9268L32.0972 17.9277L33.4204 17.9307C33.2209 17.4624 32.204 14.4525 32.021 14.3008Z" fill="#6F7985"/>
<path d="M11.9275 24.5335C13.3966 24.412 14.451 25.0815 14.6001 26.6312C14.5409 26.6332 14.0509 26.6653 14.0403 26.6064C13.9561 26.1382 13.8953 25.7787 13.5048 25.4521C12.7635 24.8323 11.3439 24.9051 10.7183 25.6638C10.581 25.8293 10.4776 26.1082 10.5174 26.3217C10.8101 27.893 12.9918 27.5626 13.9874 28.4558C14.2379 28.6806 14.4833 28.9335 14.5683 29.2646C14.9726 30.841 13.7205 31.5589 12.4254 31.647C11.9984 31.6552 11.5732 31.59 11.1682 31.4542C10.61 31.2698 10.1564 30.9567 9.89221 30.4157C9.79627 30.2194 9.63882 29.7945 9.71142 29.5773C9.80638 29.5106 10.1616 29.5187 10.301 29.5136C10.3143 29.6315 10.3284 29.8002 10.354 29.9103C10.6653 31.2465 12.7458 31.4976 13.6625 30.6791C13.8243 30.5346 13.8971 30.4205 14.0059 30.2281C14.0363 29.5706 14.0675 29.1358 13.4174 28.7778C12.2863 28.1548 10.29 28.1305 9.91849 26.6293C9.77487 26.0492 10.1959 25.2147 10.7191 24.9326C11.1192 24.6949 11.4659 24.6144 11.9275 24.5335Z" fill="#6F7985"/>
<path d="M20.6073 13.3675C22.3168 13.2747 23.1551 13.9716 23.47 15.6484L22.8465 15.6502C22.6987 14.2497 21.7405 13.6866 20.4429 13.9693C18.989 14.3961 19.0074 15.7688 18.9318 16.9224C18.832 18.4448 19.5565 20.4798 21.4949 19.9431C22.4272 19.6338 22.6999 19.2169 22.8539 18.2754L23.4598 18.2809C23.399 18.6345 23.3035 19.0226 23.1377 19.3413C22.892 19.8221 22.4613 20.1823 21.9445 20.3391C20.4015 20.8111 18.9008 20.1586 18.4959 18.5386C18.1921 17.323 18.1934 15.7323 18.798 14.5979C19.1801 13.8809 19.8669 13.5727 20.6073 13.3675Z" fill="#6F7985"/>
<path d="M24.3403 24.5338C25.9773 24.3874 26.8329 25.2401 27.0947 26.8005C26.9888 26.8088 26.615 26.8382 26.5904 26.7971C26.293 26.2962 26.2557 25.6124 25.6682 25.2758C24.8336 24.7976 23.5397 25.0133 23.0447 25.8723C22.0286 27.6362 22.2896 31.7237 25.2295 31.0746C26.441 30.6864 26.1899 29.9522 26.564 29.3995C26.6862 29.3373 26.9216 29.3625 27.0708 29.3668C27.01 29.8331 26.9526 30.2117 26.6922 30.6165C26.0233 31.681 24.2476 31.9624 23.2351 31.2637C22.2054 30.5531 21.9667 29.5377 22.0093 28.3623C22.046 27.3472 21.8878 26.4941 22.5322 25.5912C23.0369 24.884 23.5404 24.6795 24.3403 24.5338Z" fill="#6F7985"/>
<path d="M32.1423 24.5296C32.1821 24.5262 32.2219 24.5237 32.2618 24.522C33.3677 24.4758 34.3955 25.0902 34.3844 26.305C34.3729 27.5613 33.2419 28.6185 32.478 29.5057C32.0436 30.0103 31.5721 30.5287 31.1081 31.0047C32.2079 31.0619 33.3294 30.9889 34.4305 31.0295C34.5706 31.0346 34.607 31.0288 34.6999 31.122C34.7295 31.257 34.7389 31.2804 34.6824 31.4042C34.6563 31.4216 34.6244 31.4428 34.5868 31.4678C33.5509 31.4645 32.1426 31.4658 31.1413 31.4659C30.9415 31.4682 30.521 31.4878 30.3665 31.3942C30.2513 30.8307 33.7258 27.7812 33.7827 26.7362C33.9371 26.0715 33.5666 25.2039 32.7891 25.0671C31.4771 24.8363 31.0332 25.5801 30.8164 26.6431C30.6494 26.6393 30.3729 26.6598 30.2739 26.5676C30.2449 26.2362 30.4367 25.683 30.6179 25.4132C31.0107 24.8283 31.5075 24.6696 32.1423 24.5296Z" fill="#6F7985"/>
<path d="M9.14062 22.4704C9.66388 22.4121 10.9516 22.4445 11.5084 22.4448L16.0938 22.4485L30.9482 22.452C31.4583 22.4521 35.2715 22.4012 35.4398 22.5136L35.4501 22.6338C34.0381 22.6714 32.5536 22.6515 31.1358 22.652L23.817 22.654L14.3103 22.6571C12.9222 22.6576 10.653 22.7077 9.21744 22.6091C9.16866 22.6057 9.1564 22.5209 9.14062 22.4704Z" fill="#6F7985"/>
<path d="M16.2217 13.5335L16.8307 13.5332L16.8298 20.3929L16.2236 20.3914L16.2217 13.5335Z" fill="#6F7985"/>
</g>
<defs>
<clipPath id="clip0_3454_10203">
<rect width="45" height="45" fill="white"/>
</clipPath>
</defs>
</svg>
