<svg xmlns="http://www.w3.org/2000/svg" fill="none" overflow="visible" preserveAspectRatio="none" style="display:block" viewBox="0 0 19.737 19.737"><g stroke="var(--stroke-0, #05704e)" stroke-linecap="round" stroke-linejoin="round" stroke-width="1.346"><path d="M4.934 18.093a1.645 1.645 0 0 1-1.645-1.645V3.29a1.645 1.645 0 0 1 1.645-1.645h6.579a1.97 1.97 0 0 1 1.401.58l2.95 2.951a1.97 1.97 0 0 1 .583 1.403v9.869a1.645 1.645 0 0 1-1.645 1.645z"/><path d="M11.514 1.645v4.112a.823.823 0 0 0 .822.822h4.112m-8.224.823H6.579m6.58 3.29h-6.58m6.58 3.288h-6.58"/></g></svg>