<svg xmlns="http://www.w3.org/2000/svg" fill="none" overflow="visible" preserveAspectRatio="none" style="display:block" viewBox="0 0 22 22"><g stroke="var(--stroke-0, #05704e)" stroke-linecap="round" stroke-linejoin="round" stroke-width="1.5"><path d="M5.5 20.166a1.833 1.833 0 0 1-1.833-1.833V3.666A1.833 1.833 0 0 1 5.5 1.833h7.333a2.2 2.2 0 0 1 1.562.647l3.29 3.29a2.2 2.2 0 0 1 .648 1.563v11a1.834 1.834 0 0 1-1.833 1.833z"/><path d="M12.834 1.833v4.583a.917.917 0 0 0 .916.917h4.584m-9.167.917H7.333m7.334 3.667H7.334m7.333 3.666H7.334"/></g></svg>