<svg xmlns="http://www.w3.org/2000/svg" width="34" height="34" fill="none" viewBox="0 0 34 34"><g clip-path="url(#a)"><path fill="#555f75" d="M23 20a.75.75 0 0 1 .75.75v1.5a2.25 2.25 0 0 1-2.25 2.25h-9a2.25 2.25 0 0 1-2.25-2.25v-1.5a.75.75 0 1 1 1.5 0v1.5a.75.75 0 0 0 .75.75h9a.75.75 0 0 0 .75-.75v-1.5A.75.75 0 0 1 23 20m-6-9.75a.75.75 0 0 1 .75.75v7.189l2.47-2.47a.75.75 0 0 1 1.06 1.061l-3.75 3.75a1 1 0 0 1-.067.06l.067-.06a.75.75 0 0 1-.505.22h-.049l-.04-.003.064.003a.75.75 0 0 1-.53-.22l-3.75-3.75a.75.75 0 0 1 1.06-1.06l2.47 2.469V11a.75.75 0 0 1 .75-.75"/></g><defs><clipPath id="a"><path fill="#fff" d="M8 8h18v18H8z"/></clipPath></defs></svg>