<svg xmlns="http://www.w3.org/2000/svg" fill="none" overflow="visible" preserveAspectRatio="none" style="display:block" viewBox="0 0 24.572 24.567"><g stroke="var(--stroke-0, #2f78ee)" stroke-linecap="round" stroke-linejoin="round" stroke-width="1.5"><path d="M17.691.75H6.876C3.111.75.75 3.418.75 7.193v10.182c0 3.775 2.351 6.442 6.126 6.442h10.809c3.781 0 6.131-2.667 6.131-6.442V7.192C23.821 3.418 21.47.75 17.691.75" clip-rule="evenodd"/><path d="M10.692 8.294a2.307 2.307 0 1 1-4.614.001 2.307 2.307 0 0 1 4.614-.001" clip-rule="evenodd"/><path d="M23.822 16.002c-1.154-1.188-3.373-3.587-5.785-3.587-2.414 0-3.805 5.291-6.127 5.291-2.32 0-4.43-2.392-6.29-.858C3.76 18.38 2 21.514 2 21.514"/></g></svg>