<svg width="22" height="22" viewBox="0 0 22 22" fill="none" xmlns="http://www.w3.org/2000/svg">
<path d="M19.9375 14.6286V13.75C19.9375 12.2334 18.7041 11 17.1875 11C15.6709 11 14.4375 12.2334 14.4375 13.75V14.6286C14.0284 14.8672 13.75 15.3058 13.75 15.8125V19.25C13.75 20.0083 14.3667 20.625 15.125 20.625H19.25C20.0083 20.625 20.625 20.0083 20.625 19.25V15.8125C20.625 15.3058 20.3466 14.8672 19.9375 14.6286ZM17.1875 12.375C17.9458 12.375 18.5625 12.9924 18.5625 13.75V14.4375H15.8125V13.75C15.8125 12.9924 16.4292 12.375 17.1875 12.375ZM19.25 19.25H15.125V15.8125H19.25V19.25ZM11 1.46438C10.3262 1.4025 9.625 1.375 8.9375 1.375C5.29375 1.375 1.375 2.23438 1.375 4.125V16.5C1.375 18.3906 5.29375 19.25 8.9375 19.25C9.625 19.25 10.3262 19.2225 11 19.1606V17.7788C10.3813 17.8406 9.69375 17.875 8.9375 17.875C4.91563 17.875 2.85313 16.8713 2.75 16.5V14.0456C4.21438 14.7813 6.6275 15.125 8.9375 15.125C9.625 15.125 10.3262 15.0975 11 15.0356V13.6538C10.3813 13.7156 9.69375 13.75 8.9375 13.75C4.91563 13.75 2.85313 12.7463 2.75 12.375V9.92063C4.21438 10.6563 6.6275 11 8.9375 11C9.625 11 10.3262 10.9725 11 10.9106C13.9219 10.6356 16.5 9.78313 16.5 8.25V4.125C16.5 2.59187 13.9219 1.73938 11 1.46438ZM15.125 8.24312C15.0356 8.5525 13.6606 9.2675 11 9.52875C10.3813 9.59062 9.69375 9.625 8.9375 9.625C4.91563 9.625 2.85313 8.62125 2.75 8.25V5.79563C4.21438 6.53125 6.6275 6.875 8.9375 6.875C9.625 6.875 10.3194 6.8475 11 6.77875C12.6019 6.63437 14.0938 6.31125 15.125 5.79563V8.24312ZM11 5.40375C10.3813 5.46563 9.69375 5.5 8.9375 5.5C4.9225 5.5 2.86 4.49625 2.75 4.13875V4.13188C2.86 3.75375 4.9225 2.75 8.9375 2.75C9.69375 2.75 10.3813 2.78437 11 2.84625C13.64 3.10062 15.015 3.80875 15.125 4.125C15.015 4.44125 13.64 5.14938 11 5.40375Z" fill="white"/>
</svg>
