<svg width="17" height="19" viewBox="0 0 17 19" fill="none" xmlns="http://www.w3.org/2000/svg">
<path d="M8.25001 11C5.17001 11 4.16168 12.2375 3.83168 13.0533C4.41331 13.3033 4.89095 13.7463 5.18407 14.3074C5.47719 14.8685 5.56787 15.5136 5.44081 16.1338C5.31376 16.754 4.97674 17.3114 4.48658 17.7121C3.99642 18.1128 3.3831 18.3322 2.75001 18.3333C1.22834 18.3333 1.14715e-05 17.105 1.14715e-05 15.5833C1.14715e-05 14.3825 0.760845 13.365 1.83334 12.9892V5.34417C1.2962 5.15569 0.831073 4.80464 0.502538 4.33976C0.174003 3.87488 -0.00163506 3.31925 1.14715e-05 2.75C1.14715e-05 1.22833 1.22834 0 2.75001 0C4.27168 0 5.50001 1.22833 5.50001 2.75C5.50001 3.95083 4.73918 4.96833 3.66668 5.34417V10.1933C4.47334 9.5975 5.64668 9.16667 7.33334 9.16667C9.78084 9.16667 10.5967 7.93833 10.8625 7.1225C10.3613 6.91317 9.93302 6.56057 9.63135 6.10888C9.32967 5.65718 9.16803 5.1265 9.16668 4.58333C9.16668 3.06167 10.395 1.83333 11.9167 1.83333C13.4383 1.83333 14.6667 3.06167 14.6667 4.58333C14.6667 5.81167 13.86 6.875 12.7508 7.205C12.5125 8.51583 11.6233 11 8.25001 11ZM2.75001 14.6667C2.24584 14.6667 1.83334 15.0792 1.83334 15.5833C1.83334 16.0875 2.24584 16.5 2.75001 16.5C3.25418 16.5 3.66668 16.0875 3.66668 15.5833C3.66668 15.0792 3.25418 14.6667 2.75001 14.6667ZM2.75001 1.83333C2.24584 1.83333 1.83334 2.24583 1.83334 2.75C1.83334 3.25417 2.24584 3.66667 2.75001 3.66667C3.25418 3.66667 3.66668 3.25417 3.66668 2.75C3.66668 2.24583 3.25418 1.83333 2.75001 1.83333ZM11.9167 3.66667C11.4125 3.66667 11 4.07917 11 4.58333C11 5.0875 11.4125 5.5 11.9167 5.5C12.4208 5.5 12.8333 5.0875 12.8333 4.58333C12.8333 4.07917 12.4208 3.66667 11.9167 3.66667ZM11.6875 17.5633L9.16668 14.8133L10.23 13.75L11.6875 15.2075L14.9783 11.9167L16.0417 13.2092L11.6875 17.5633Z" fill="white"/>
</svg>
