<svg width="22" height="22" viewBox="0 0 22 22" fill="none" xmlns="http://www.w3.org/2000/svg">
<g clip-path="url(#clip0_3415_2793)">
<path d="M20.625 12.375V16.1562C20.625 17.1875 20.0063 18.0813 19.0438 18.5625L17.875 19.1125L16.7062 18.5625C15.7437 18.15 15.125 17.1875 15.125 16.1562V12.375H20.625ZM22 11H13.75V16.1562C13.75 17.6688 14.6437 19.1125 16.0875 19.8L17.875 20.625L19.6625 19.8C21.1063 19.1125 22 17.7375 22 16.1562V11Z" fill="white"/>
<path d="M11 17.1875H5.15625C2.3375 17.1875 0 14.85 0 12.0312C0 9.4875 1.85625 7.425 4.2625 6.94375C4.88125 3.7125 7.7 1.375 11 1.375C14.7812 1.375 17.875 4.46875 17.875 8.25H16.5C16.5 5.225 14.025 2.75 11 2.75C8.18125 2.75 5.84375 4.88125 5.5 7.63125V8.25H4.88125C2.8875 8.3875 1.375 10.0375 1.375 12.0312C1.375 14.0938 3.09375 15.8125 5.15625 15.8125H11V17.1875Z" fill="white"/>
</g>
<defs>
<clipPath id="clip0_3415_2793">
<rect width="22" height="22" fill="white"/>
</clipPath>
</defs>
</svg>
