<svg width="22" height="22" viewBox="0 0 22 22" fill="none" xmlns="http://www.w3.org/2000/svg">
<g clip-path="url(#clip0_3415_2773)">
<path d="M21.0833 17.4167C21.0833 18.3891 20.697 19.3218 20.0094 20.0094C19.3218 20.697 18.3891 21.0833 17.4167 21.0833H15.5833V19.25H17.4167C17.9029 19.25 18.3692 19.0568 18.713 18.713C19.0568 18.3692 19.25 17.9029 19.25 17.4167C19.25 16.9304 19.0568 16.4641 18.713 16.1203C18.3692 15.7765 17.9029 15.5833 17.4167 15.5833H15.5833V13.75H17.4167C18.3891 13.75 19.3218 14.1363 20.0094 14.8239C20.697 15.5116 21.0833 16.4442 21.0833 17.4167ZM8.25 17.4167C8.25 16.4442 8.63631 15.5116 9.32394 14.8239C10.0116 14.1363 10.9442 13.75 11.9167 13.75H13.75V15.5833H11.9167C11.4304 15.5833 10.9641 15.7765 10.6203 16.1203C10.2765 16.4641 10.0833 16.9304 10.0833 17.4167C10.0833 17.9029 10.2765 18.3692 10.6203 18.713C10.9641 19.0568 11.4304 19.25 11.9167 19.25H13.75V21.0833H11.9167C10.9442 21.0833 10.0116 20.697 9.32394 20.0094C8.63631 19.3218 8.25 18.3891 8.25 17.4167Z" fill="white"/>
<path d="M12.8333 16.5007H16.5V18.334H12.8333V16.5007ZM8.25 4.58398C7.7061 4.58398 7.17442 4.74527 6.72218 5.04744C6.26995 5.34962 5.91747 5.77911 5.70933 6.2816C5.50119 6.7841 5.44673 7.33703 5.55284 7.87048C5.65895 8.40393 5.92086 8.89393 6.30546 9.27853C6.69005 9.66312 7.18005 9.92503 7.7135 10.0311C8.24695 10.1373 8.79988 10.0828 9.30238 9.87465C9.80488 9.66651 10.2344 9.31404 10.5365 8.8618C10.8387 8.40957 11 7.87788 11 7.33398C10.9976 6.60538 10.7071 5.90731 10.1919 5.39211C9.67667 4.87691 8.9786 4.5864 8.25 4.58398ZM8.25 8.25065C8.0687 8.25065 7.89147 8.19689 7.74073 8.09616C7.58998 7.99544 7.47249 7.85228 7.40311 7.68478C7.33373 7.51728 7.31558 7.33297 7.35095 7.15515C7.38632 6.97734 7.47362 6.814 7.60182 6.6858C7.73002 6.55761 7.89335 6.4703 8.07117 6.43493C8.24898 6.39956 8.43329 6.41771 8.60079 6.48709C8.76829 6.55648 8.91146 6.67397 9.01218 6.82471C9.11291 6.97546 9.16667 7.15268 9.16667 7.33398C9.16594 7.57688 9.06913 7.80961 8.89738 7.98136C8.72563 8.15312 8.49289 8.24993 8.25 8.25065ZM4.8675 13.7507C5.87664 13.0985 7.04862 12.7428 8.25 12.724C8.48874 12.728 8.72697 12.7476 8.96317 12.7827C9.84462 12.2176 10.8697 11.9173 11.9167 11.9173H12.1495C10.9484 11.2747 9.61199 10.926 8.25 10.8998C6.38917 10.8998 2.75 11.8807 2.75 14.1815V15.584H6.73658C6.97651 14.9077 7.34646 14.2849 7.82558 13.7507H4.8675Z" fill="white"/>
<path d="M14.6667 1.83352H10.835C10.6473 1.29767 10.2977 0.833396 9.83462 0.504919C9.37151 0.176443 8.81777 0 8.25 0C7.68223 0 7.12849 0.176443 6.66539 0.504919C6.20228 0.833396 5.8527 1.29767 5.665 1.83352H1.83333C1.34755 1.83497 0.882076 2.02859 0.538574 2.37209C0.195071 2.7156 0.00145083 3.18107 0 3.66685L0 16.5002C0.00145083 16.986 0.195071 17.4514 0.538574 17.7949C0.882076 18.1384 1.34755 18.3321 1.83333 18.3335H6.54592C6.37276 17.7347 6.37276 17.099 6.54592 16.5002H1.83333V3.66685H14.6667V11.9169H16.5V3.66685C16.4985 3.18107 16.3049 2.7156 15.9614 2.37209C15.6179 2.02859 15.1525 1.83497 14.6667 1.83352ZM8.25 2.97935C8.06811 2.97791 7.89407 2.90502 7.76545 2.7764C7.63683 2.64778 7.56394 2.47374 7.5625 2.29185C7.5625 2.10952 7.63493 1.93465 7.76386 1.80572C7.8928 1.67679 8.06766 1.60435 8.25 1.60435C8.43234 1.60435 8.6072 1.67679 8.73614 1.80572C8.86507 1.93465 8.9375 2.10952 8.9375 2.29185C8.93606 2.47374 8.86317 2.64778 8.73455 2.7764C8.60593 2.90502 8.43189 2.97791 8.25 2.97935Z" fill="white"/>
</g>
<defs>
<clipPath id="clip0_3415_2773">
<rect width="22" height="22" fill="white"/>
</clipPath>
</defs>
</svg>
