<svg width="22" height="22" viewBox="0 0 22 22" fill="none" xmlns="http://www.w3.org/2000/svg">
<path d="M5.50008 11.0452C5.50008 11.7327 5.62995 12.4012 5.88967 13.0508C6.14939 13.7005 6.55425 14.3 7.10425 14.8493L7.33342 15.0785V13.7493C7.33342 13.4896 7.42142 13.2721 7.59742 13.0967C7.77342 12.9213 7.99097 12.8333 8.25008 12.8327C8.5092 12.8321 8.72706 12.9201 8.90367 13.0967C9.08028 13.2733 9.16797 13.4908 9.16675 13.7493V17.416C9.16675 17.6757 9.07875 17.8936 8.90275 18.0696C8.72675 18.2456 8.5092 18.3333 8.25008 18.3327H4.58342C4.3237 18.3327 4.10614 18.2447 3.93075 18.0687C3.75536 17.8927 3.66736 17.6751 3.66675 17.416C3.66614 17.1569 3.75414 16.9393 3.93075 16.7633C4.10736 16.5873 4.32492 16.4993 4.58342 16.4993H6.18758L5.82092 16.1785C5.02647 15.4757 4.46883 14.6737 4.148 13.7723C3.82717 12.8709 3.66675 11.9618 3.66675 11.0452C3.66675 9.60907 4.03342 8.30649 4.76675 7.13743C5.50008 5.96838 6.4855 5.07096 7.723 4.44518C7.93689 4.32296 8.16239 4.31532 8.3995 4.42227C8.63661 4.52921 8.79306 4.7049 8.86883 4.94935C8.94522 5.17852 8.94156 5.40768 8.85783 5.63685C8.77411 5.86602 8.625 6.04171 8.4105 6.16393C7.52439 6.65282 6.81795 7.32902 6.29117 8.19252C5.76439 9.05602 5.5007 10.0069 5.50008 11.0452ZM16.5001 10.9535C16.5001 10.266 16.3702 9.59776 16.1105 8.94876C15.8508 8.29976 15.4459 7.69996 14.8959 7.14935L14.6668 6.92018V8.24935C14.6668 8.50907 14.5788 8.72693 14.4028 8.90293C14.2268 9.07893 14.0092 9.16663 13.7501 9.16602C13.491 9.1654 13.2734 9.0774 13.0974 8.90202C12.9214 8.72663 12.8334 8.50907 12.8334 8.24935V4.58268C12.8334 4.32296 12.9214 4.1054 13.0974 3.93002C13.2734 3.75463 13.491 3.66663 13.7501 3.66602H17.4168C17.6765 3.66602 17.8943 3.75402 18.0703 3.93002C18.2463 4.10602 18.334 4.32357 18.3334 4.58268C18.3328 4.84179 18.2448 5.05965 18.0694 5.23627C17.894 5.41288 17.6765 5.50057 17.4168 5.49935H15.8126L16.1793 5.82018C16.9279 6.56879 17.4742 7.38249 17.8183 8.26126C18.1623 9.14004 18.334 10.0375 18.3334 10.9535C18.3334 12.3896 17.9668 13.6922 17.2334 14.8613C16.5001 16.0303 15.5147 16.9277 14.2772 17.5535C14.0633 17.6757 13.8381 17.6834 13.6016 17.5764C13.3651 17.4695 13.2083 17.2938 13.1313 17.0493C13.0549 16.8202 13.0589 16.591 13.1433 16.3618C13.2276 16.1327 13.3764 15.957 13.5897 15.8348C14.4758 15.3459 15.1825 14.67 15.7099 13.8071C16.2373 12.9442 16.5007 11.993 16.5001 10.9535Z" fill="white"/>
</svg>
