<svg xmlns="http://www.w3.org/2000/svg" width="29" height="29" fill="none" viewBox="0 0 29 29"><g clip-path="url(#a)" opacity=".5"><mask id="b" width="29" height="29" x="0" y="0" maskUnits="userSpaceOnUse" style="mask-type:luminance"><path fill="#fff" d="M23.476 0 0 4.99l4.99 23.476 23.475-4.99z"/></mask><g stroke="#000" stroke-linecap="round" stroke-linejoin="round" stroke-miterlimit="10" stroke-width="1.5" mask="url(#b)"><path d="m12.547 4.521 9.551 1.65c.372.064.733.417.81.779l.69 3.247a1.003 1.003 0 0 1-.77 1.186L5.22 15.126a1.003 1.003 0 0 1-1.186-.77l-.69-3.248c-.077-.362.11-.83.423-1.04l8.055-5.393c.179-.12.511-.19.723-.154m13.547 17.414L6.529 26.094l-.624-2.935a1.003 1.003 0 0 1 .77-1.186l17.607-3.742a1.003 1.003 0 0 1 1.186.77z"/><path d="m7.655 21.765-1.456-6.847m5.368 6.016-1.456-6.848m5.368 6.016-1.456-6.847m5.37 6.015-1.456-6.847m5.368 6.016-1.455-6.847" opacity=".5"/><path d="m5.55 26.302 21.52-4.574"/><path d="M13.505 10.81a1.5 1.5 0 1 0-.624-2.935 1.5 1.5 0 0 0 .624 2.934" opacity=".5"/></g></g><defs><clipPath id="a"><path fill="#fff" d="M0 4.99 23.476 0l4.99 23.476-23.476 4.99z"/></clipPath></defs></svg>