<svg xmlns="http://www.w3.org/2000/svg" width="18" height="18" fill="none" viewBox="0 0 18 18"><g clip-path="url(#a)"><path fill="#555f75" d="M9 3.75a.75.75 0 0 1 0 1.5H4.5a.75.75 0 0 0-.75.75v7.5a.75.75 0 0 0 .75.75H12a.75.75 0 0 0 .75-.75V9a.75.75 0 1 1 1.5 0v4.5A2.25 2.25 0 0 1 12 15.75H4.5a2.25 2.25 0 0 1-2.25-2.25V6A2.25 2.25 0 0 1 4.5 3.75zm2.25-1.5H15l.056.002.095.013.083.022.083.034.074.038.072.05.067.06a1 1 0 0 1 .073.085l.053.082.04.086.027.079.022.11.005.089v3.75a.75.75 0 1 1-1.5 0V4.81l-5.47 5.47a.75.75 0 0 1-1.06-1.06l5.468-5.47H11.25a.75.75 0 1 1 0-1.5"/></g><defs><clipPath id="a"><path fill="#fff" d="M0 0h18v18H0z"/></clipPath></defs></svg>