<svg xmlns="http://www.w3.org/2000/svg" fill="none" overflow="visible" preserveAspectRatio="none" style="display:block" viewBox="0 0 18 18"><g stroke="var(--stroke-0, black)" stroke-linecap="round" stroke-linejoin="round" stroke-width="1.25"><path d="M15 9.75c0 3.75-2.625 5.625-5.745 6.712a.75.75 0 0 1-.503-.007C5.626 15.375 3 13.5 3 9.75V4.5a.75.75 0 0 1 .75-.75c1.5 0 3.375-.9 4.68-2.04a.88.88 0 0 1 1.14 0c1.313 1.148 3.18 2.04 4.68 2.04a.75.75 0 0 1 .75.75z"/><path d="m6.75 9 1.5 1.5 3-3"/></g></svg>