<svg width="20" height="18" viewBox="0 0 20 18" fill="none" xmlns="http://www.w3.org/2000/svg">
<g clip-path="url(#clip0_3397_4216)">
<path d="M12.5007 11.5V9.625C12.5007 8.96196 12.2373 8.32607 11.7685 7.85723C11.2997 7.38839 10.6638 7.125 10.0007 7.125C9.33769 7.125 8.70181 7.38839 8.23297 7.85723C7.76412 8.32607 7.50073 8.96196 7.50073 9.625V11.5C7.16936 11.5005 6.85171 11.6324 6.6174 11.8667C6.38308 12.101 6.25123 12.4186 6.25073 12.75V16.5C6.25123 16.8314 6.38308 17.149 6.6174 17.3833C6.85171 17.6176 7.16936 17.7495 7.50073 17.75H12.5007C12.8321 17.7495 13.1498 17.6176 13.3841 17.3833C13.6184 17.149 13.7502 16.8314 13.7507 16.5V12.75C13.7502 12.4186 13.6184 12.101 13.3841 11.8667C13.1498 11.6324 12.8321 11.5005 12.5007 11.5ZM8.75073 9.625C8.75073 9.29348 8.88243 8.97554 9.11685 8.74112C9.35127 8.5067 9.66921 8.375 10.0007 8.375C10.3323 8.375 10.6502 8.5067 10.8846 8.74112C11.119 8.97554 11.2507 9.29348 11.2507 9.625V11.5H8.75073V9.625ZM7.50073 16.5V12.75H12.5007L12.5014 16.5H7.50073Z" fill="white"/>
<path d="M16.1438 5.32156C15.9069 4.09393 15.3076 2.96545 14.4231 2.0817C13.5387 1.19795 12.4098 0.599457 11.182 0.363438C10.3754 0.207664 9.54607 0.212366 8.74133 0.377275C7.9366 0.542184 7.17225 0.864068 6.49198 1.32453C5.81171 1.78499 5.22885 2.375 4.77672 3.06083C4.32459 3.74666 4.01205 4.51488 3.85697 5.32156C2.70482 5.52925 1.67205 6.16044 0.961712 7.09104C0.251378 8.02163 -0.0851253 9.18429 0.0183656 10.3504C0.121857 11.5166 0.657854 12.6018 1.52097 13.3927C2.38409 14.1837 3.51187 14.6231 4.68259 14.6247H5.00071V13.3747H4.68509C3.82685 13.3731 3.00022 13.0507 2.3676 12.4707C1.73497 11.8908 1.34209 11.0952 1.26612 10.2403C1.19016 9.38544 1.43661 8.53307 1.95706 7.85064C2.4775 7.16821 3.23433 6.70506 4.07884 6.55219L4.92259 6.39906L5.08446 5.55844C5.30447 4.41595 5.91553 3.38576 6.81265 2.64491C7.70977 1.90406 8.83692 1.49881 10.0004 1.49881C11.1639 1.49881 12.291 1.90406 13.1882 2.64491C14.0853 3.38576 14.6963 4.41595 14.9163 5.55844L15.0782 6.39906L15.9213 6.55219C16.7656 6.70501 17.5222 7.16791 18.0427 7.85001C18.5631 8.53211 18.8098 9.38412 18.7342 10.2388C18.6587 11.0934 18.2664 11.8889 17.6343 12.4692C17.0023 13.0494 16.1762 13.3724 15.3182 13.3747H15.0007V14.6247H15.3182C16.4889 14.623 17.6166 14.1834 18.4796 13.3924C19.3426 12.6014 19.8784 11.5162 19.9818 10.3501C20.0853 9.18403 19.7487 8.02144 19.0384 7.09091C18.328 6.16038 17.2953 5.52924 16.1432 5.32156" fill="white"/>
</g>
<defs>
<clipPath id="clip0_3397_4216">
<rect width="20.0007" height="18" fill="white"/>
</clipPath>
</defs>
</svg>
