<svg xmlns="http://www.w3.org/2000/svg" width="24" height="24" fill="none" viewBox="0 0 24 24"><path fill="#555f75" d="M3.338 2.066c.27-.035.7-.01.983-.01l1.798.002h11.706l1.837-.001c.666 0 1.247-.102 1.797.341.275.226.448.551.483.905.03.29.015.729.015 1.033l-.002 1.71V17.79l.002 1.825c0 .27.015.756-.008 1.013a1.5 1.5 0 0 1-.332.81c-.248.3-.63.477-1.016.515-.149.014-.64 0-.817 0l-1.755-.003H6.168l-1.852.001c-.662.002-1.221.106-1.765-.35-.609-.511-.5-1.174-.5-1.878V4.315c-.001-.357-.012-.742.013-1.094.012-.18.195-.52.316-.66.263-.3.564-.458.958-.495"/><path fill="#fff" d="M15.198 9.294c.102-.014.23-.01.336-.01 3.73-.017 3.48 3.296 3.479 5.968v3.742l-2.962-.001v-3.426c0-.245-.007-.577 0-.821.047-1.542-.027-3.246-2.09-2.82-.412.086-.699.347-.915.713-.398.75-.305 2.084-.305 2.945v3.41c-.966-.015-1.97-.001-2.94-.001V9.515l2.824-.006v1.35c.125-.152.219-.338.375-.514.587-.658 1.33-.987 2.198-1.051m-7.664.216q.209 0 .416-.003l-.003 9.487c-.8-.013-1.639 0-2.441 0l-.5-.001.001-9.479zM6.31 4.803a1.712 1.712 0 1 1 .35 3.405 1.712 1.712 0 0 1-.35-3.405"/></svg>