<svg xmlns="http://www.w3.org/2000/svg" width="216" height="216" fill="none" viewBox="0 0 216 216"><path fill="url(#a)" d="M101.483 0h13.422c.622.418 1.233.399 1.958.422 7.284.233 14.215 1.635 21.231 3.648a108.06 108.06 0 0 1 74.162 75.092c1.839 6.657 3.191 14.343 3.482 21.267.024.547.114.996.262 1.519v12.317l-.038.183c-.232 1.147-.327 3.3-.449 4.584-.323 3.424-.694 6.354-1.359 9.722a108.6 108.6 0 0 1-17.082 40.593c-2.557 3.703-5.039 6.582-7.625 10.053-1.283-1.536-6.706-14.526-7.795-16.971l-16.917-37.708A4593 4593 0 0 0 107.951.454c-1.296 2.95-2.76 6-4.166 8.901-17.704 36.558-33.954 73.739-50.607 110.782l-18.252 40.701-4.91 11.038c-.887 1.993-2.319 5.425-3.492 7.155-2.236-2.844-4.503-5.367-6.564-8.29C9.34 155.678 2.458 137.883.658 119.518c-.15-1.533-.147-6.493-.658-7.62v-7.839c.432-1.064.413-2.637.431-3.808.04-2.707.303-5.225.702-7.899a109 109 0 0 1 5.032-20.388 107.6 107.6 0 0 1 71.347-67.7A123 123 0 0 1 92.529.972c1.59-.249 7.987-.423 8.954-.972"/><path fill="url(#b)" d="M107.87 88.9c2.848 7.25 7.425 16.668 10.708 24.001l34.8 77.559c.881 1.98 4.971 11.491 5.872 12.86-1.623 1.04-4.231 2.208-6.024 3.034A114 114 0 0 1 116.171 216h-15.025c-2.118-.449-7.187-.717-9.99-1.185a110 110 0 0 1-27.716-8.354c-1.73-.762-5.206-2.327-6.747-3.346.84-1.347 2.057-4.288 2.752-5.845l4.625-10.377 40.504-90.33c1.035-2.302 2.503-5.358 3.296-7.664"/><defs><linearGradient id="a" x1="108" x2="108" y1="19.975" y2="166.571" gradientUnits="userSpaceOnUse"><stop stop-color="#fff"/><stop offset="1" stop-color="#0a111e"/></linearGradient><linearGradient id="b" x1="108" x2="108" y1="19.975" y2="166.571" gradientUnits="userSpaceOnUse"><stop stop-color="#fff"/><stop offset="1" stop-color="#0a111e"/></linearGradient></defs></svg>