<svg xmlns="http://www.w3.org/2000/svg" width="24" height="24" fill="none" viewBox="0 0 24 24"><path fill="#fff" d="M3.338 2.066c.27-.034.699-.01.983-.01l1.798.002h11.706l1.836-.001c.666 0 1.248-.102 1.798.342.274.225.448.551.483.905.029.29.015.728.015 1.033l-.002 1.709v11.745l.002 1.825c0 .27.015.757-.008 1.014a1.5 1.5 0 0 1-.332.809c-.248.3-.631.478-1.016.515-.15.015-.641 0-.818 0l-1.755-.002H4.316c-.662.002-1.222.107-1.765-.35-.609-.51-.5-1.174-.5-1.877V4.316c-.002-.357-.013-.743.012-1.095.013-.18.195-.52.317-.659a1.37 1.37 0 0 1 .958-.496"/><path fill="#0a111e" d="M15.198 9.294c.102-.014.23-.01.336-.01 3.73-.017 3.479 3.296 3.478 5.968v3.742l-2.96-.001v-3.426c0-.245-.008-.577 0-.821.046-1.542-.028-3.246-2.091-2.82-.413.086-.699.347-.915.713-.399.75-.306 2.084-.306 2.945l.001 3.41c-.966-.015-1.97-.001-2.94-.001V9.515l2.823-.006v1.35c.126-.152.22-.338.376-.514.586-.658 1.33-.987 2.198-1.051m-7.664.216q.209 0 .416-.003l-.003 9.487c-.8-.013-1.639-.001-2.441-.001h-.5l.001-9.479zM6.31 4.803a1.712 1.712 0 1 1 .35 3.406 1.712 1.712 0 0 1-.35-3.406"/></svg>