<svg xmlns="http://www.w3.org/2000/svg" width="59" height="59" fill="none" viewBox="0 0 59 59"><path fill="#0085f7" d="M20.097 37.602q-1.722-1.16-2.374-3.401l2.661-1.097q.363 1.38 1.266 2.14c.598.506 1.327.755 2.178.755q1.305 0 2.243-.794.939-.795.94-2.02 0-1.256-.99-2.048-.992-.795-2.477-.794h-1.538v-2.634h1.38q1.279 0 2.152-.69t.874-1.891q0-1.068-.782-1.706-.781-.64-1.982-.64-1.174-.002-1.864.624a3.7 3.7 0 0 0-1.005 1.538l-2.634-1.097q.522-1.485 1.929-2.619 1.411-1.134 3.596-1.135 1.618-.001 2.907.625 1.29.628 2.021 1.733.73 1.11.729 2.49 0 1.407-.68 2.384a4.7 4.7 0 0 1-1.667 1.5v.157c.87.364 1.58.92 2.14 1.668q.834 1.12.835 2.684 0 1.566-.793 2.792-.796 1.225-2.19 1.928-1.398.704-3.14.706-2.017.004-3.735-1.158m16.346-13.206-2.921 2.113-1.461-2.217 5.241-3.78h2.01v17.834h-2.869z"/><path fill="#00a94b" d="M44.48 44.481H13.806l-4.392 6.47 4.392 7.334H44.48l3.628-7.803z"/><path fill="#0085f7" d="M44.48 0H4.602A4.6 4.6 0 0 0 0 4.601v39.88l6.902 4.906 6.902-4.906V13.804h30.677l4.722-6.902z"/><path fill="#00802e" d="M0 44.481v9.203a4.6 4.6 0 0 0 4.601 4.601h9.203V44.481z"/><path fill="#ffbc00" d="m58.285 13.805-6.902-4.442-6.902 4.442V44.48l6.207 3.24 7.597-3.24z"/><path fill="#0067d5" d="M58.285 13.804V4.601A4.6 4.6 0 0 0 53.684 0H44.48v13.804z"/><path fill="#ff4131" d="m44.481 58.285 13.804-13.804H44.481z"/></svg>