<svg xmlns="http://www.w3.org/2000/svg" width="78" height="59" fill="none" viewBox="0 0 78 59"><path fill="#0085f7" d="M5.299 58.299h12.363V28.273L9.566 14.136 0 15.026V53a5.297 5.297 0 0 0 5.299 5.299"/><path fill="#00a94b" d="M60.051 58.299h12.364A5.297 5.297 0 0 0 77.713 53V15.026l-9.552-.89-8.11 14.137z"/><path fill="#ffbc00" d="M60.051 5.313 52.79 19.17l7.262 9.103 17.662-13.247V7.962c0-6.548-7.475-10.288-12.716-6.358z"/><path fill="#ff4131" fill-rule="evenodd" d="m17.662 28.274-6.92-14.619 6.92-8.342 21.195 15.896L60.05 5.313v22.96L38.857 44.17z" clip-rule="evenodd"/><path fill="#e51c19" d="M0 7.962v7.065l17.662 13.247V5.313l-4.945-3.71C7.476-2.325 0 1.415 0 7.964"/></svg>