<svg xmlns="http://www.w3.org/2000/svg" width="59" height="59" fill="none" viewBox="0 0 59 59"><path fill="#ff4340" d="M21.337 30.85a6.105 6.105 0 0 0-6.098 6.098v15.239a6.105 6.105 0 0 0 6.098 6.098 6.105 6.105 0 0 0 6.098-6.098V36.948a6.105 6.105 0 0 0-6.098-6.098m-9.513 0H5.92a5.91 5.91 0 0 0-5.904 5.904 5.91 5.91 0 0 0 5.904 5.903 5.91 5.91 0 0 0 5.904-5.903z"/><path fill="#36c6ff" d="M0 21.337a6.105 6.105 0 0 0 6.098 6.098h15.239a6.105 6.105 0 0 0 6.098-6.098 6.105 6.105 0 0 0-6.098-6.098H6.098A6.105 6.105 0 0 0 0 21.337m21.531-9.514h5.904V5.92A5.91 5.91 0 0 0 21.531.016a5.91 5.91 0 0 0-5.903 5.904 5.91 5.91 0 0 0 5.903 5.903"/><path fill="#0dc46e" d="M36.948 27.435a6.105 6.105 0 0 0 6.098-6.098V6.098A6.105 6.105 0 0 0 36.948 0a6.105 6.105 0 0 0-6.098 6.098v15.239a6.105 6.105 0 0 0 6.098 6.098m9.514 0h5.903a5.91 5.91 0 0 0 5.904-5.904 5.91 5.91 0 0 0-5.904-5.903 5.91 5.91 0 0 0-5.904 5.903z"/><path fill="#fdcb02" d="M58.285 36.948a6.105 6.105 0 0 0-6.098-6.098H36.948a6.105 6.105 0 0 0-6.098 6.098 6.105 6.105 0 0 0 6.098 6.098h15.239a6.105 6.105 0 0 0 6.098-6.098m-21.531 9.514H30.85v5.903a5.91 5.91 0 0 0 5.904 5.904 5.91 5.91 0 0 0 5.903-5.904 5.91 5.91 0 0 0-5.903-5.904"/></svg>