<svg xmlns="http://www.w3.org/2000/svg" width="20" height="20" fill="none" viewBox="0 0 20 20"><mask id="b" width="20" height="20" x="0" y="0" maskUnits="userSpaceOnUse" style="mask-type:alpha"><g clip-path="url(#a)"><path fill="#fff" d="M3.707 9.293a1 1 0 0 0 0 1.414l3.939 3.94a.5.5 0 0 0 .708 0l7.439-7.44a1 1 0 0 0 0-1.414l-.086-.086a1 1 0 0 0-1.414 0L8 12 5.207 9.207a1 1 0 0 0-1.414 0z"/></g></mask><g mask="url(#b)"><path fill="url(#c)" d="M0 0h20v20H0z"/></g><defs><linearGradient id="c" x1="-.952" x2="25.607" y1="4.375" y2="4.838" gradientUnits="userSpaceOnUse"><stop stop-color="#1cb987"/><stop offset="1" stop-color="#09573e"/></linearGradient><clipPath id="a"><path fill="#fff" d="M0 0h20v20H0z"/></clipPath></defs></svg>