<svg xmlns="http://www.w3.org/2000/svg" fill="none" overflow="visible" preserveAspectRatio="none" style="display:block" viewBox="0 0 152 152"><rect width="152" height="152" fill="var(--fill-0, #e4edff)" fill-opacity=".16" rx="16"/><rect width="151" height="151" x=".5" y=".5" stroke="url(#a)" stroke-opacity=".21" rx="15.5"/><g clip-path="url(#b)"><path fill="var(--fill-0, #fefefe)" d="M73.767 39h4.599c.213.143.422.137.67.145 2.496.08 4.87.56 7.274 1.25a37.02 37.02 0 0 1 25.407 25.725c.63 2.281 1.094 4.914 1.193 7.286.008.188.039.341.09.52v4.22l-.013.063c-.079.393-.112 1.13-.154 1.57a32 32 0 0 1-.465 3.331 37.2 37.2 0 0 1-5.853 13.907c-.875 1.269-1.726 2.255-2.612 3.444-.39.505-1 1.058-1.453 1.526-2.33 2.414-5.881 5.139-8.892 6.669-.556.356-1.45.756-2.064 1.039A39 39 0 0 1 78.8 113h-5.147c-.726-.154-2.462-.246-3.423-.406a37.7 37.7 0 0 1-9.495-2.862c-.593-.261-1.784-.797-2.312-1.146-.31-.21-.741-.409-1.076-.604-3.57-2.071-6.497-4.587-9.26-7.647-.765-.975-1.542-1.839-2.248-2.84-3.638-5.16-5.996-11.257-6.613-17.55-.051-.524-.05-2.223-.225-2.61V74.65c.148-.365.142-.904.148-1.305.014-.927.103-1.79.24-2.706a37.4 37.4 0 0 1 1.724-6.985 36.86 36.86 0 0 1 24.443-23.193 42 42 0 0 1 5.145-1.128c.545-.085 2.736-.145 3.067-.333"/><path fill="var(--fill-0, #05704d)" d="M73.767 39h4.599c.213.143.422.137.67.145 2.496.08 4.87.56 7.274 1.25a37.02 37.02 0 0 1 25.407 25.725c.63 2.281 1.094 4.914 1.193 7.286.008.188.039.341.09.52v4.22l-.013.063c-.079.393-.112 1.13-.154 1.57a32 32 0 0 1-.465 3.331 37.2 37.2 0 0 1-5.853 13.907c-.875 1.269-1.726 2.255-2.612 3.444-.439-.526-2.297-4.976-2.67-5.814l-5.796-12.919a1574 1574 0 0 0-19.454-42.572 93 93 0 0 1-1.427 3.05c-6.065 12.523-11.632 25.261-17.338 37.952l-6.253 13.944-1.682 3.781c-.304.683-.794 1.86-1.196 2.452-.766-.975-1.543-1.839-2.249-2.84-3.638-5.16-5.996-11.257-6.613-17.55-.051-.524-.05-2.223-.225-2.61V74.65c.148-.365.142-.904.148-1.305.014-.927.103-1.79.24-2.706a37.4 37.4 0 0 1 1.724-6.985 36.86 36.86 0 0 1 24.443-23.193 42 42 0 0 1 5.145-1.128c.545-.085 2.736-.145 3.067-.333"/><path fill="var(--fill-0, #05704d)" d="M75.955 69.456c.976 2.484 2.544 5.71 3.67 8.223l7.713 17.183 4.208 9.388c.302.678 1.703 3.937 2.012 4.406-.556.356-1.45.756-2.064 1.039A39 39 0 0 1 78.8 113h-5.147c-.726-.154-2.462-.246-3.423-.406a37.7 37.7 0 0 1-9.495-2.862c-.593-.261-1.783-.797-2.312-1.146.288-.462.705-1.469.943-2.003l1.585-3.555 5.263-11.76 6.646-14.81 1.967-4.376c.355-.789.858-1.836 1.13-2.626"/></g><defs><linearGradient id="a" x1="76" x2="76" y1="47.5" y2="152" gradientUnits="userSpaceOnUse"><stop stop-color="#2e57a5" stop-opacity=".36"/><stop offset="1" stop-color="#2e57a5"/></linearGradient><clipPath id="b"><path fill="#fff" d="M39 39h74v74H39z"/></clipPath></defs></svg>