<svg xmlns="http://www.w3.org/2000/svg" fill="none" overflow="visible" preserveAspectRatio="none" style="display:block" viewBox="0 0 74 45"><path stroke="url(#a)" d="M53.469 40.883H15.601c-5.044 0-9.132-4.425-9.132-9.884V15.883"/><path stroke="url(#b)" stroke-opacity=".77" d="M53.469 40.883H15.782c-5.144 0-9.313-4.425-9.313-9.884V15.883"/><path fill="var(--fill-0, white)" d="M51.998 44.5a3.5 3.5 0 1 1 0-7 3.5 3.5 0 0 1 0 7"/><path fill="url(#c)" d="M51.998 44.5a3.5 3.5 0 1 1 0-7 3.5 3.5 0 0 1 0 7"/><path stroke="url(#d)" stroke-opacity=".2" d="M51.998 44.5a3.5 3.5 0 1 1 0-7 3.5 3.5 0 0 1 0 7Z"/><defs><linearGradient id="a" x1="21.993" x2="23.178" y1="11.001" y2="36.156" gradientUnits="userSpaceOnUse"><stop stop-color="#d8e3f3" stop-opacity="0"/><stop offset="1" stop-color="#d8e3f3"/></linearGradient><linearGradient id="b" x1="7.391" x2="49.928" y1="23.383" y2="40.277" gradientUnits="userSpaceOnUse"><stop stop-color="#059466" stop-opacity="0"/><stop offset=".5" stop-color="#077351"/><stop offset="1" stop-color="#077351"/></linearGradient><linearGradient id="c" x1="55.831" x2="48.11" y1="39.031" y2="39.246" gradientUnits="userSpaceOnUse"><stop stop-color="#059466"/><stop offset="1" stop-color="#09523b"/></linearGradient><linearGradient id="d" x1="51.998" x2="51.998" y1="37.5" y2="44.5" gradientUnits="userSpaceOnUse"><stop stop-color="#059466"/><stop offset="1" stop-color="#09523b"/></linearGradient></defs></svg>