<svg xmlns="http://www.w3.org/2000/svg" fill="none" overflow="visible" preserveAspectRatio="none" style="display:block" viewBox="0 0 13.352 13.352"><g stroke="var(--stroke-0, #6a7181)" stroke-linecap="round" stroke-linejoin="round" stroke-width="1.113"><path d="M6.676 4.451c2.765 0 5.007-.747 5.007-1.669 0-.921-2.242-1.669-5.007-1.669-2.766 0-5.007.748-5.007 1.67S3.91 4.45 6.676 4.45"/><path d="M1.669 2.782v7.789c0 .443.527.867 1.466 1.18.94.313 2.213.489 3.54.489 1.329 0 2.602-.176 3.541-.489s1.467-.737 1.467-1.18V2.782"/><path d="M1.669 6.676c0 .443.527.868 1.466 1.18.94.314 2.213.49 3.54.49 1.329 0 2.602-.176 3.541-.49.94-.312 1.467-.737 1.467-1.18"/></g></svg>