<svg xmlns="http://www.w3.org/2000/svg" width="71" height="57" fill="none" viewBox="0 0 71 57"><path fill="#545454" d="m69.369 39.731-5.856-9.283s-.021-.039-.035-.056l-.462-.729a4.74 4.74 0 0 0-4.026-2.218l-9.43-.03-.66 1.044-11.27 17.864-.621.989 4.721 7.472a4.72 4.72 0 0 0 4.04 2.219h13.216c1.63 0 3.173-.851 4.036-2.215l.466-.738s.017-.02.02-.03l5.867-9.294a4.68 4.68 0 0 0 0-4.997zm-1.787 3.886-5.864 9.294a1 1 0 0 1-.082.113.798.798 0 0 1-1.266-.117l-5.868-9.294a2.5 2.5 0 0 1-.299-.669 2.6 2.6 0 0 1 .295-2.096l5.856-9.287.014-.019a.74.74 0 0 1 .466-.334c.06-.018.113-.022.155-.03h.067c.136 0 .472.043.68.38l5.855 9.28a2.6 2.6 0 0 1 0 2.779zM52.04 17.272a4.7 4.7 0 0 0 0-4.997l-5.856-9.281-.488-.781A4.74 4.74 0 0 0 41.658 0H28.443a4.76 4.76 0 0 0-4.041 2.219L.734 39.735A4.66 4.66 0 0 0 0 42.233c0 .88.253 1.749.727 2.495l6.349 10.066a4.74 4.74 0 0 0 4.033 2.215h13.22c1.658 0 3.166-.83 4.038-2.22l.482-.759v-.01s.01-.011.01-.015l4.719-7.474 13.984-22.166 4.469-7.09zm-1.38-2.499c0 .48-.136.964-.412 1.39L27.064 52.917a.8.8 0 0 1-.68.37.8.8 0 0 1-.68-.37l-5.86-9.298a2.62 2.62 0 0 1 0-2.775L43.034 4.1a.8.8 0 0 1 .68-.375.8.8 0 0 1 .684.38l5.853 9.28c.276.428.41.912.41 1.39"/></svg>