<svg xmlns="http://www.w3.org/2000/svg" width="56" height="59" fill="none" viewBox="0 0 56 59"><path fill="#545454" fill-rule="evenodd" d="M35.695.104 3.532 2.521C.93 2.707 0 4.473 0 6.518V41.84c0 1.58.558 2.975 1.952 4.74l7.53 9.854c1.208 1.58 2.416 1.952 4.74 1.766l37.368-2.23c3.16-.187 4.09-1.674 4.09-4.184V12.002c0-1.301-.464-1.673-2.044-2.788-.094-.093-.186-.093-.28-.186L43.133 1.87C40.715.011 39.692-.175 35.695.104M15.059 11.352c-3.068.185-3.718.278-5.485-1.209l-4.368-3.44c-.465-.464-.28-1.022.93-1.115l30.953-2.23c2.603-.187 3.904.65 4.927 1.487l5.299 3.81c.278.094.836.745.092.745l-31.976 1.952zm-3.532 40.064V17.673c0-1.488.464-2.138 1.766-2.231l36.717-2.138c1.209-.093 1.766.65 1.766 2.138v33.464c0 1.487-.279 2.695-2.23 2.788L14.407 53.74c-1.952.186-2.881-.557-2.881-2.323m34.672-31.884c.186 1.022 0 2.045-1.023 2.138l-1.673.371v24.913c-1.487.836-2.788 1.208-3.904 1.208-1.766 0-2.23-.558-3.625-2.23L24.819 28.455V45.28l3.533.837s0 2.045-2.79 2.045l-7.808.465c-.185-.465 0-1.58.744-1.766l2.045-.558v-22.31l-2.788-.278c-.186-1.023.371-2.51 1.952-2.603l8.366-.558 11.526 17.662V22.599l-2.974-.372c-.186-1.208.65-2.138 1.766-2.23z" clip-rule="evenodd"/></svg>