<svg xmlns="http://www.w3.org/2000/svg" width="32" height="32" fill="none" viewBox="0 0 32 32"><rect width="32" height="32" fill="#ebf8f4" rx="8"/><g stroke="#056f4d" stroke-linecap="round" stroke-linejoin="round" stroke-width="1.5" clip-path="url(#a)"><path d="M11.334 12.8a1.467 1.467 0 0 1 1.466-1.466h.667c.387 0 .759-.154 1.033-.427l.467-.467a1.467 1.467 0 0 1 2.08 0l.467.467c.274.273.646.427 1.033.427h.667A1.467 1.467 0 0 1 20.68 12.8v.667c0 .387.154.759.427 1.033l.467.467a1.466 1.466 0 0 1 0 2.08l-.467.467a1.47 1.47 0 0 0-.427 1.033v.667a1.466 1.466 0 0 1-1.466 1.466h-.667c-.387 0-.759.154-1.033.427l-.467.467a1.466 1.466 0 0 1-2.08 0l-.467-.467a1.47 1.47 0 0 0-1.033-.427H12.8a1.467 1.467 0 0 1-1.466-1.466v-.667c0-.387-.154-.759-.427-1.033l-.467-.467a1.47 1.47 0 0 1 0-2.08l.467-.467a1.47 1.47 0 0 0 .427-1.033z"/><path d="m14 16 1.333 1.334L18 14.667"/></g><defs><clipPath id="a"><path fill="#fff" d="M8 8h16v16H8z"/></clipPath></defs></svg>