<svg xmlns="http://www.w3.org/2000/svg" width="32" height="32" fill="none" viewBox="0 0 32 32"><rect width="32" height="32" fill="#ebf8f4" rx="8"/><g stroke="#056f4d" stroke-linecap="round" stroke-linejoin="round" stroke-width="1.5" clip-path="url(#a)"><path d="M15.667 22h-3a1.333 1.333 0 0 1-1.333-1.334v-4a1.334 1.334 0 0 1 1.333-1.333h6.667a1.334 1.334 0 0 1 1.333 1.333V17"/><path d="M15.334 18.667a.667.667 0 1 0 1.334 0 .667.667 0 0 0-1.334 0m-2-3.334v-2.666a2.667 2.667 0 1 1 5.333 0v2.666M18 20.666 19.333 22 22 19.333"/></g><defs><clipPath id="a"><path fill="#fff" d="M8 8h16v16H8z"/></clipPath></defs></svg>