<svg xmlns="http://www.w3.org/2000/svg" width="32" height="32" fill="none" viewBox="0 0 32 32"><rect width="32" height="32" fill="#ebf8f4" rx="8"/><path stroke="#056f4d" stroke-linecap="round" stroke-linejoin="round" stroke-width="1.5" d="M16 18.667h.007M16 13.333V16m2.209-6.667c.353 0 .692.14.942.39l3.126 3.126c.25.25.39.59.39.943v4.416c0 .353-.14.692-.39.942l-3.126 3.126c-.25.25-.589.39-.942.39h-4.416c-.354 0-.693-.14-.943-.39L9.725 19.15c-.25-.25-.39-.589-.391-.942v-4.416c0-.354.14-.693.39-.943l3.126-3.125c.25-.25.59-.39.943-.391z"/></svg>