<svg xmlns="http://www.w3.org/2000/svg" width="14" height="14" fill="none" viewBox="0 0 14 14"><path stroke="#08c186" stroke-linecap="round" stroke-linejoin="round" d="M11.667 7.583c0 2.917-2.041 4.375-4.468 5.22a.58.58 0 0 1-.39-.005c-2.433-.84-4.475-2.298-4.475-5.215V3.5a.583.583 0 0 1 .583-.584c1.167 0 2.625-.7 3.64-1.586a.68.68 0 0 1 .887 0c1.02.892 2.473 1.586 3.64 1.586a.583.583 0 0 1 .583.584z"/><path stroke="#08c186" stroke-linecap="round" stroke-linejoin="round" d="m5.25 7 1.167 1.166L8.75 5.833"/></svg>