<svg xmlns="http://www.w3.org/2000/svg" width="14" height="14" fill="none" viewBox="0 0 14 14"><path stroke="#08c186" stroke-linecap="round" stroke-linejoin="round" stroke-width="1.5" d="M7 4.667c2.9 0 5.25-.784 5.25-1.75 0-.967-2.35-1.75-5.25-1.75s-5.25.783-5.25 1.75c0 .966 2.35 1.75 5.25 1.75"/><path stroke="#08c186" stroke-linecap="round" stroke-linejoin="round" stroke-width="1.5" d="M1.75 2.917v8.167c0 .464.553.909 1.538 1.237.984.328 2.32.513 3.712.513s2.728-.185 3.712-.513c.985-.328 1.538-.773 1.538-1.237V2.917"/><path stroke="#08c186" stroke-linecap="round" stroke-linejoin="round" stroke-width="1.5" d="M1.75 7c0 .464.553.91 1.538 1.237.984.329 2.32.513 3.712.513s2.728-.184 3.712-.513C11.697 7.91 12.25 7.464 12.25 7"/></svg>