<svg xmlns="http://www.w3.org/2000/svg" fill="none" overflow="visible" preserveAspectRatio="none" style="display:block" viewBox="0 0 38.703 45.828"><path fill="var(--fill-0, #b2bfc9)" stroke="var(--stroke-0, #b2bfc9)" stroke-width=".352" d="m19.464.32.672.557c4.794 3.975 11.166 3.974 16.55 3.968h1.841v19.757c0 7.43-4.882 12.686-9.488 15.997-2.322 1.67-4.636 2.894-6.367 3.698a37 37 0 0 1-2.1.906q-.579.225-1.164.42l-.056.02-.056-.02q-.585-.196-1.162-.42l-.001-.001a38 38 0 0 1-2.102-.905c-1.73-.804-4.045-2.028-6.367-3.697C5.056 37.287.176 32.03.176 24.601V4.845h1.842c5.384.007 11.757.007 16.551-3.968l.67-.556.113-.093zM19 2.074C14.523 5.582 8.879 6.005 4.06 6.049h-.002l-2.044.003h-.636v18.55c0 6.845 4.495 11.786 8.984 15.013 2.245 1.613 4.49 2.802 6.174 3.584l.604.275a35 35 0 0 0 1.43.602q.294.113.591.22l.19.068.19-.069q.297-.106.59-.22a37 37 0 0 0 2.034-.875c1.683-.784 3.929-1.97 6.174-3.585 4.489-3.227 8.984-8.168 8.984-15.013V6.052h-.636c-5.183.007-11.845.05-16.986-3.98l-.35-.274z"/></svg>